# xmcd
# Copyright (C) 1995-1998 Ti Kan
#
# Track frame offsets:
#       150
#       19337
#       39217
#       55585
#       77777
#       93756
#       124436
#       144521
#       160171
#       177075
#       201003
#
# Disc length: 2933 seconds
#
# Revision: 0
# Processed by: cddbd v1.5.2PL0 Copyright (c) Steve Scherf et al.
# Submitted via: CD-Transfer v1.0
#
DISCID=860b730b
DTITLE=Mrvica Maksim - Appassionata
DYEAR=11
DGENRE=
TTITLE0=Carnival
TTITLE1=Habanera
TTITLE2=Tramuntana
TTITLE3=The Swan
TTITLE4=Serengeti Plains
TTITLE5=Aquarium
TTITLE6=Dumka
TTITLE7=Appassionata
TTITLE8=Varadero
TTITLE9=Brahms Sonata Meastoza
TTITLE10=Ana's Dream
EXTD=
EXTT0=
EXTT1=
EXTT2=
EXTT3=
EXTT4=
EXTT5=
EXTT6=
EXTT7=
EXTT8=
EXTT9=
EXTT10=
PLAYORDER=
